<?xml version="1.0" encoding="UTF-8" standalone="no"?>
<!-- Created with Inkscape (http://www.inkscape.org/) -->

<svg
   width="860mm"
   height="220mm"
   viewBox="0 0 860 220"
   version="1.1"
   id="svg5"
   inkscape:version="1.1.2 (0a00cf5339, 2022-02-04, custom)"
   sodipodi:docname="venicequeen_oneline.svg"
   xmlns:inkscape="http://www.inkscape.org/namespaces/inkscape"
   xmlns:sodipodi="http://sodipodi.sourceforge.net/DTD/sodipodi-0.dtd"
   xmlns="http://www.w3.org/2000/svg"
   xmlns:svg="http://www.w3.org/2000/svg">
  <sodipodi:namedview
     id="namedview7"
     pagecolor="#ffffff"
     bordercolor="#666666"
     borderopacity="1.0"
     inkscape:pageshadow="2"
     inkscape:pageopacity="0.0"
     inkscape:pagecheckerboard="0"
     inkscape:document-units="mm"
     showgrid="false"
     objecttolerance="1"
     inkscape:zoom="0.089689494"
     inkscape:cx="1181.8553"
     inkscape:cy="-1098.2334"
     inkscape:window-width="1920"
     inkscape:window-height="1009"
     inkscape:window-x="0"
     inkscape:window-y="34"
     inkscape:window-maximized="1"
     inkscape:current-layer="layer1" />
  <defs
     id="defs2">
    <rect
       x="138.37512"
       y="343.99796"
       width="434.52374"
       height="316.84024"
       id="rect3158" />
  </defs>
  <g
     inkscape:label="Ebene 1"
     inkscape:groupmode="layer"
     id="layer1">
    <g
       id="g6636">
      <g
         id="g2043"
         style="fill:#dc143c;fill-opacity:1"
         transform="translate(-39.194728,-4.6931553e-5)">
        <rect
           style="fill:#dc143c;fill-opacity:1;stroke:none;stroke-width:0.842;stroke-miterlimit:4;stroke-dasharray:none;stroke-dashoffset:11.1798"
           id="rect10324"
           width="47.934311"
           height="10.449553"
           x="267.63373"
           y="18.806425"
           ry="0" />
        <rect
           style="fill:#dc143c;fill-opacity:1;stroke:none;stroke-width:0.842002;stroke-miterlimit:4;stroke-dasharray:none;stroke-dashoffset:11.1798"
           id="rect10324-6"
           width="47.998352"
           height="10.435647"
           x="165.49925"
           y="218.22063"
           ry="0"
           transform="matrix(0.70616333,-0.70804897,0.70616333,0.70804897,0,0)" />
        <rect
           style="fill:#dc143c;fill-opacity:1;stroke:none;stroke-width:0.842002;stroke-miterlimit:4;stroke-dasharray:none;stroke-dashoffset:11.1798"
           id="rect10324-7"
           width="47.998352"
           height="10.435647"
           x="199.43929"
           y="-194.71625"
           ry="0"
           transform="matrix(0.70616333,0.70804897,-0.70616333,0.70804897,0,0)" />
        <rect
           style="fill:#dc143c;fill-opacity:1;stroke:none;stroke-width:0.842;stroke-miterlimit:4;stroke-dasharray:none;stroke-dashoffset:11.1798"
           id="rect10324-5"
           width="48.062309"
           height="10.421723"
           x="4.6931553e-05"
           y="-296.81174"
           ry="0"
           transform="rotate(90)" />
      </g>
      <path
         id="text2737"
         style="font-size:309.496px;line-height:1.25;font-family:'AvantGarde LT Medium';-inkscape-font-specification:'AvantGarde LT Medium, ';fill:#191970;fill-opacity:1;stroke-width:6.9282"
         d="m 508.52016,0 c -9.12347,0 -16.98227,2.7927463 -23.57645,8.3783279 -6.50386,5.4954921 -9.75557,12.1174431 -9.75557,19.8651971 V 168.24299 c 0,7.2973 2.93557,13.69412 8.8071,19.18962 5.96188,5.40539 13.23384,8.42328 21.81533,9.05391 V 220 h 5.55542 v -23.51348 c 8.49115,-0.63063 15.67226,-3.64852 21.54378,-9.05391 5.96186,-5.4955 8.94288,-11.89232 8.94288,-19.18962 V 28.243525 c 0,-7.747754 -3.25172,-14.369705 -9.75558,-19.8651971 C 525.59324,2.7927463 517.73397,0 508.52016,0 Z M 0,1.351646 V 6.3515601 H 6.9102101 L 25.067017,195.1349 H 47.15291 L 66.664522,6.3515601 h 6.910209 V 1.351646 H 52.708339 v 4.9999141 h 7.045965 L 43.630156,172.16207 29.131872,6.3515601 h 6.910209 V 1.351646 Z m 508.52016,3.6482681 c 3.07127,0 5.69117,1.0813149 7.85914,3.2434768 2.16793,2.1621631 3.25168,4.7746091 3.25168,7.8376761 V 180.40546 c 0,5.58558 -2.75478,9.18921 -8.26499,10.81082 v -28.7837 h -5.55542 v 28.7837 c -5.60055,-1.62161 -8.40078,-5.22524 -8.40078,-10.81082 V 16.081067 c 0,-3.063067 1.08376,-5.675513 3.2517,-7.8376761 2.16797,-2.1621619 4.7874,-3.2434768 7.85867,-3.2434768 z M 113.27532,49.865149 c -9.03314,0 -16.530377,2.747442 -22.49224,8.242924 -5.961873,5.405415 -8.942874,12.072212 -8.942874,20.000148 v 90.134769 c 0,7.92795 2.981001,14.64005 8.942874,20.13553 5.961863,5.40541 13.4591,8.108 22.49224,8.108 9.03314,10e-6 16.48541,-2.70259 22.35696,-8.108 5.96187,-5.49548 8.94287,-12.20758 8.94287,-20.13553 v -17.1619 h -21.67956 v 29.32437 c 0,7.38739 -3.20674,11.08114 -9.62027,11.08114 -6.50385,0 -9.75556,-3.69375 -9.75556,-11.08114 v -54.99998 h 41.05539 V 78.108221 c 0,-7.927936 -2.981,-14.594733 -8.94287,-20.000148 -5.87155,-5.495482 -13.32382,-8.242924 -22.35696,-8.242924 z m 85.63449,0 c -6.68453,0 -12.05924,1.756735 -16.12415,5.270245 v -3.919066 h -28.59024 v 4.999914 h 7.04598 V 190.13496 h -7.04598 v 4.99994 h 35.63574 v -4.99994 h -7.0455 V 60.135308 c 3.1616,-3.153148 6.50369,-4.73005 10.02662,-4.73005 5.41989,0 8.12972,3.513928 8.12972,10.540962 V 195.1349 h 28.45447 v -4.99994 h -6.91022 V 75.270459 c 0,-16.936931 -7.85879,-25.40531 -23.57644,-25.40531 z m 112.46216,0 c -9.03315,0 -16.53038,2.747442 -22.49225,8.242924 -5.96186,5.405415 -8.94288,12.072212 -8.94288,20.000148 v 90.134769 c 0,7.92795 2.98102,14.64005 8.94288,20.13553 5.96187,5.40541 13.4591,8.108 22.49225,8.108 9.03315,10e-6 16.48588,-2.70259 22.35741,-8.108 5.96189,-5.49548 8.9424,-12.20758 8.9424,-20.13553 v -17.1619 h -21.67954 v 29.32437 c 0,7.38739 -3.20675,11.08114 -9.62027,11.08114 -6.50386,0 -9.75555,-3.69375 -9.75555,-11.08114 V 65.94622 c 0,-7.387396 3.25169,-11.081157 9.75555,-11.081157 6.41352,0 9.62027,3.693761 9.62027,11.081157 v 29.323905 h 21.67954 V 78.108221 c 0,-7.927936 -2.98051,-14.594733 -8.9424,-20.000148 -5.87153,-5.495482 -13.32426,-8.242924 -22.35741,-8.242924 z m 75.74315,0 c -9.03315,0 -16.53084,2.747442 -22.49273,8.242924 -5.96186,5.405415 -8.94286,12.072212 -8.94286,20.000148 v 90.134769 c 0,7.92795 2.981,14.64005 8.94286,20.13553 5.96189,5.40541 13.45958,8.108 22.49273,8.108 9.03314,10e-6 16.4854,-2.70259 22.35695,-8.108 5.96187,-5.49548 8.94289,-12.20758 8.94289,-20.13553 v -17.1619 h -21.67958 v 29.32437 c 0,7.38739 -3.20674,11.08114 -9.62026,11.08114 -6.50387,0 -9.75603,-3.69375 -9.75603,-11.08114 v -54.99998 h 41.05587 V 78.108221 c 0,-7.927936 -2.98102,-14.594733 -8.94289,-20.000148 -5.87155,-5.495482 -13.32381,-8.242924 -22.35695,-8.242924 z m 280.2079,0 c -9.03315,0 -16.53086,2.747442 -22.49272,8.242924 -5.96186,5.405415 -8.94286,12.072212 -8.94286,20.000148 v 90.134769 c 0,7.92795 2.981,14.64005 8.94286,20.13553 5.96186,5.40541 13.45957,8.108 22.49272,8.108 9.03313,10e-6 16.4854,-2.70259 22.35696,-8.108 5.96186,-5.49548 8.94285,-12.20758 8.94285,-20.13553 v -17.1619 h -21.67954 v 29.32437 c 0,7.38739 -3.20675,11.08114 -9.62027,11.08114 -6.50386,0 -9.75603,-3.69375 -9.75603,-11.08114 v -54.99998 h 41.05584 V 78.108221 c 0,-7.927936 -2.98099,-14.594733 -8.94285,-20.000148 -5.87156,-5.495482 -13.32383,-8.242924 -22.35696,-8.242924 z m 76.55585,0 c -9.03315,0 -16.53086,2.747442 -22.49273,8.242924 -5.96186,5.405415 -8.94288,12.072212 -8.94288,20.000148 v 90.134769 c 0,7.92795 2.98102,14.64005 8.94288,20.13553 5.96187,5.40541 13.45958,8.108 22.49273,8.108 9.03311,10e-6 16.4854,-2.70259 22.35693,-8.108 5.9619,-5.49548 8.94288,-12.20758 8.94288,-20.13553 v -17.1619 h -21.67955 v 29.32437 c 0,7.38739 -3.20674,11.08114 -9.62026,11.08114 -6.50387,0 -9.75603,-3.69375 -9.75603,-11.08114 v -54.99998 h 41.05584 V 78.108221 c 0,-7.927936 -2.98098,-14.594733 -8.94288,-20.000148 -5.87153,-5.495482 -13.32382,-8.242924 -22.35693,-8.242924 z m 85.63399,0 c -6.6845,0 -12.05922,1.756735 -16.12412,5.270245 v -3.919066 h -28.5898 v 4.999914 h 7.04598 V 190.13496 h -7.04598 v 4.99994 h 35.63574 v -4.99994 h -7.04594 V 60.135308 c 3.16158,-3.153148 6.50414,-4.73005 10.02705,-4.73005 5.41991,0 8.12974,3.513928 8.12974,10.540962 V 195.1349 H 860 v -4.99994 h -6.91069 V 75.270459 c 0,-16.936931 -7.85879,-25.40531 -23.57645,-25.40531 z m -594.96732,1.351179 v 4.999914 h 6.91022 V 190.13496 h -6.91022 v 4.99994 h 35.49997 v -4.99994 H 263.1353 V 51.216328 Z m 316.92738,0 v 4.999914 h 6.91021 V 171.08121 c 0,16.93694 7.90423,25.40531 23.71222,25.40531 6.5942,10e-6 11.92394,-1.75672 15.98884,-5.27024 v 3.91862 h 28.58978 v -4.99994 h -6.91068 V 51.216328 h -28.58976 v 4.999914 h 6.91066 V 186.21635 c -3.1616,3.15317 -6.45872,4.7296 -9.89132,4.7296 -5.41987,0 -8.13019,-3.51347 -8.13019,-10.54049 V 51.216328 Z m -438.1976,3.648735 c 6.41353,0 9.62027,3.693761 9.62027,11.081157 v 54.45932 H 103.51976 V 65.94622 c 0,-7.387396 3.25171,-11.081157 9.75556,-11.081157 z m 273.8398,0 c 6.41352,0 9.62026,3.693761 9.62026,11.081157 v 54.45932 H 377.35909 V 65.94622 c 0,-7.387396 3.25216,-11.081157 9.75603,-11.081157 z m 280.2079,0 c 6.41352,0 9.62027,3.693761 9.62027,11.081157 v 54.45932 h -19.3763 V 65.94622 c 0,-7.387396 3.25217,-11.081157 9.75603,-11.081157 z m 76.55585,0 c 6.41352,0 9.62026,3.693761 9.62026,11.081157 v 54.45932 H 734.12284 V 65.94622 c 0,-7.387396 3.25216,-11.081157 9.75603,-11.081157 z" />
    </g>
  </g>
</svg>
