<?xml version="1.0" encoding="UTF-8" standalone="no"?>
<!-- Created with Inkscape (http://www.inkscape.org/) -->

<svg
   width="500mm"
   height="500mm"
   viewBox="0 0 500 500"
   version="1.1"
   id="svg5"
   inkscape:version="1.1.1 (3bf5ae0d25, 2021-09-20, custom)"
   sodipodi:docname="venicequeen.svg"
   xmlns:inkscape="http://www.inkscape.org/namespaces/inkscape"
   xmlns:sodipodi="http://sodipodi.sourceforge.net/DTD/sodipodi-0.dtd"
   xmlns="http://www.w3.org/2000/svg"
   xmlns:svg="http://www.w3.org/2000/svg">
  <sodipodi:namedview
     id="namedview7"
     pagecolor="#ffffff"
     bordercolor="#666666"
     borderopacity="1.0"
     inkscape:pageshadow="2"
     inkscape:pageopacity="0.0"
     inkscape:pagecheckerboard="0"
     inkscape:document-units="mm"
     showgrid="false"
     objecttolerance="1"
     inkscape:zoom="0.41539764"
     inkscape:cx="1174.778"
     inkscape:cy="749.8839"
     inkscape:window-width="1920"
     inkscape:window-height="969"
     inkscape:window-x="0"
     inkscape:window-y="0"
     inkscape:window-maximized="1"
     inkscape:current-layer="layer1" />
  <defs
     id="defs2">
    <rect
       x="138.37512"
       y="343.99796"
       width="434.52374"
       height="316.84024"
       id="rect3158" />
  </defs>
  <g
     inkscape:label="Ebene 1"
     inkscape:groupmode="layer"
     id="layer1">
    <path
       id="text3156"
       style="font-size:40px;line-height:1;font-family:'AvantGarde LT Medium';-inkscape-font-specification:'AvantGarde LT Medium, ';text-align:center;text-anchor:middle;white-space:pre;shape-inside:url(#rect3158);fill:#191970;fill-opacity:1;stroke-width:6.97301"
       d="M 39.999952,4.821013e-5 V 5.0459017 H 46.93646 L 65.161873,195.55978 H 87.331542 L 106.91702,5.0459017 h 6.93659 V 4.821013e-5 H 92.907958 V 5.0459017 h 7.072554 L 83.795292,172.37623 69.242203,5.0459017 h 6.936508 V 4.821013e-5 Z M 153.70458,48.958159 c -9.06731,0 -16.59322,2.772971 -22.57765,8.318808 -5.9845,5.454949 -8.97675,12.18271 -8.97675,20.183255 v 90.961218 c 0,8.00055 2.99225,14.77375 8.97675,20.31961 5.98443,5.45495 13.51034,8.18245 22.57765,8.18245 9.06743,0 16.54799,-2.7275 22.44177,-8.18245 5.98442,-5.54586 8.97664,-12.31906 8.97664,-20.31961 v -17.31945 h -21.76166 v 29.59305 c 0,7.45509 -3.21892,11.18261 -9.65675,11.18261 -6.52847,0 -9.79273,-3.72752 -9.79273,-11.18261 v -55.50405 h 41.21114 V 77.460222 c 0,-8.000545 -2.99222,-14.728306 -8.97664,-20.183255 -5.89378,-5.545837 -13.37434,-8.318808 -22.44177,-8.318808 z m 85.95858,0 c -6.70985,0 -12.10492,1.772873 -16.18525,5.318593 v -3.954789 h -28.69817 v 5.045774 h 7.07258 V 190.51393 h -7.07258 v 5.04585 h 35.77075 v -5.04585 h -7.07258 V 59.322579 c 3.17359,-3.18204 6.5285,-4.773114 10.06483,-4.773114 5.4404,0 8.16058,3.545773 8.16058,10.63716 V 195.55978 h 28.56215 v -5.04585 h -6.9365 V 74.596417 c 0,-17.092154 -7.88857,-25.638258 -23.66581,-25.638258 z m 112.88862,0 c -9.06732,0 -16.59323,2.772971 -22.57773,8.318808 -5.98443,5.454949 -8.97668,12.18271 -8.97668,20.183255 v 90.961218 c 0,8.00055 2.99225,14.77375 8.97668,20.31961 5.9845,5.45495 13.51041,8.18245 22.57773,8.18245 9.06734,0 16.54793,-2.7275 22.44176,-8.18245 5.98442,-5.54586 8.97664,-12.31906 8.97664,-20.31961 v -17.31945 h -21.76166 v 29.59305 c 0,7.45509 -3.21891,11.18261 -9.65674,11.18261 -6.52848,0 -9.79274,-3.72752 -9.79274,-11.18261 V 65.186625 c 0,-7.455092 3.26426,-11.182612 9.79274,-11.182612 6.43783,0 9.65674,3.72752 9.65674,11.182612 v 29.593048 h 21.76166 V 77.460222 c 0,-8.000545 -2.99222,-14.728306 -8.97664,-20.183255 -5.89383,-5.545837 -13.37442,-8.318808 -22.44176,-8.318808 z m 76.02992,0 c -9.06738,0 -16.59347,2.772971 -22.57784,8.318808 -5.98442,5.454949 -8.97667,12.18271 -8.97667,20.183255 v 90.961218 c 0,8.00055 2.99225,14.77375 8.97667,20.31961 5.98437,5.45495 13.51046,8.18245 22.57784,8.18245 9.0671,0 16.54793,-2.7275 22.44168,-8.18245 5.98429,-5.54586 8.97657,-12.31906 8.97657,-20.31961 v -17.31945 h -21.76159 v 29.59305 c 0,7.45509 -3.21889,11.18261 -9.65666,11.18261 -6.52859,0 -9.79274,-3.72752 -9.79274,-11.18261 v -55.50405 h 41.21099 V 77.460222 c 0,-8.000545 -2.99228,-14.728306 -8.97657,-20.183255 -5.89375,-5.545837 -13.37458,-8.318808 -22.44168,-8.318808 z m -153.14782,1.36383 v 5.045774 h 6.93659 V 190.51395 h -6.93659 v 5.04586 h 35.63476 v -5.04586 h -6.93651 V 50.321989 Z m -121.7293,3.68205 c 6.43783,0 9.65675,3.72752 9.65675,11.182612 V 120.14524 H 143.91185 V 65.186651 c 0,-7.455092 3.26426,-11.182612 9.79273,-11.182612 z m 274.87712,0 c 6.43777,0 9.65666,3.72752 9.65666,11.182612 v 54.958589 h -19.4494 V 65.186651 c 0,-7.455092 3.26415,-11.182612 9.79274,-11.182612 z M 96.512245,277.98397 c -9.158015,0 -17.046609,2.81844 -23.665755,8.45506 -6.528502,5.54584 -9.792818,12.22829 -9.792818,20.04708 V 447.7689 c 5.2e-5,7.36437 2.946902,13.81934 8.840732,19.36517 5.984422,5.45506 13.283667,8.50071 21.897656,9.13697 v 23.72901 h 5.576416 v -23.72901 c 8.523344,-0.63599 15.731844,-3.68191 21.625674,-9.13697 5.98442,-5.54583 8.97667,-12.0008 8.97667,-19.36517 V 306.48611 c 0,-7.81879 -3.26427,-14.50124 -9.79277,-20.04708 -6.5285,-5.63662 -14.41707,-8.45506 -23.665805,-8.45506 z m 0,5.04575 c 3.082896,0 5.712485,1.0899 7.888565,3.27287 2.17611,2.18245 3.26432,4.81853 3.26432,7.90985 v 165.83014 c 0,5.63688 -2.76556,9.27341 -8.296654,10.90985 V 441.90507 H 93.79206 v 29.04736 c -5.621738,-1.63618 -8.432646,-5.27297 -8.432646,-10.90985 V 294.21244 c 0,-3.09132 1.088053,-5.72767 3.264237,-7.90985 2.176106,-2.18244 4.805672,-3.27287 7.888594,-3.27287 z m 159.404195,45.27609 c -9.06742,0 -16.59333,2.77278 -22.57775,8.31862 -5.98443,5.45505 -8.97665,12.18289 -8.97665,20.18352 v 90.96095 c 0,8.00063 2.99222,14.77386 8.97665,20.31969 5.98442,5.45506 13.51033,8.18245 22.57775,8.18245 9.06732,0 16.54791,-2.72739 22.44166,-8.18245 5.9845,-5.54583 8.97675,-12.31906 8.97675,-20.31969 v -17.31942 h -21.76166 v 29.5931 c 0,7.45514 -3.21892,11.18272 -9.65675,11.18272 -6.5285,0 -9.79276,-3.72758 -9.79276,-11.18272 v -55.50402 h 41.21117 v -47.73061 c 0,-8.00063 -2.99225,-14.72847 -8.97675,-20.18352 -5.89375,-5.54584 -13.37434,-8.31862 -22.44166,-8.31862 z m 76.84583,0 c -9.06735,0 -16.59326,2.77278 -22.57768,8.31862 -5.9845,5.45505 -8.97675,12.18289 -8.97675,20.18352 v 90.96095 c 0,8.00063 2.99225,14.77386 8.97675,20.31969 5.98442,5.45506 13.51033,8.18245 22.57768,8.18245 9.06739,0 16.54798,-2.72739 22.44173,-8.18245 5.98443,-5.54583 8.97665,-12.31906 8.97665,-20.31969 v -17.31942 h -21.76164 v 29.5931 c 0,7.45514 -3.21891,11.18272 -9.65674,11.18272 -6.5285,0 -9.79277,-3.72758 -9.79277,-11.18272 v -55.50402 h 41.21115 v -47.73061 c 0,-8.00063 -2.99222,-14.72847 -8.97665,-20.18352 -5.89375,-5.54584 -13.37434,-8.31862 -22.44173,-8.31862 z m 85.95852,0 c -6.70992,0 -12.10489,1.7734 -16.18522,5.31862 v -3.95479 H 373.8374 v 5.04574 h 7.07258 v 135.14609 h -7.07258 v 5.04601 h 35.77075 v -5.04601 h -7.07258 v -131.1913 c 3.17359,-3.18209 6.52855,-4.77314 10.06486,-4.77314 5.44026,0 8.16065,3.54575 8.16065,10.63724 v 130.37321 h 28.56205 v -5.04601 H 442.3866 V 353.94412 c 0,-17.09221 -7.88852,-25.63831 -23.66581,-25.63831 z m -279.09323,1.36435 v 5.04575 h 6.93649 v 115.91762 c 0,17.09194 7.93399,25.63804 23.80182,25.63804 6.61918,0 11.96893,-1.7734 16.04926,-5.31862 v 3.95506 h 28.69814 v -5.04602 h -6.93648 V 329.67016 h -28.69817 v 5.04575 h 6.93651 v 131.1913 c -3.17359,3.18209 -6.48318,4.77314 -9.92876,4.77314 -5.44042,0 -8.16066,-3.54575 -8.16066,-10.63724 V 329.67016 Z m 116.28888,3.68192 c 6.43783,0 9.65675,3.72757 9.65675,11.18272 v 54.95854 H 246.12368 V 344.5348 c 0,-7.45515 3.26426,-11.18272 9.79276,-11.18272 z m 76.84583,0 c 6.43783,0 9.65674,3.72757 9.65674,11.18272 v 54.95854 H 322.9695 V 344.5348 c 0,-7.45515 3.26427,-11.18272 9.79277,-11.18272 z" />
    <g
       id="g2043"
       style="fill:#dc143c;fill-opacity:1">
      <rect
         style="fill:#dc143c;fill-opacity:1;stroke:none;stroke-width:0.842;stroke-miterlimit:4;stroke-dasharray:none;stroke-dashoffset:11.1798"
         id="rect10324"
         width="47.934311"
         height="10.449553"
         x="267.63373"
         y="18.806425"
         ry="0" />
      <rect
         style="fill:#dc143c;fill-opacity:1;stroke:none;stroke-width:0.842002;stroke-miterlimit:4;stroke-dasharray:none;stroke-dashoffset:11.1798"
         id="rect10324-6"
         width="47.998352"
         height="10.435647"
         x="165.49925"
         y="218.22063"
         ry="0"
         transform="matrix(0.70616333,-0.70804897,0.70616333,0.70804897,0,0)" />
      <rect
         style="fill:#dc143c;fill-opacity:1;stroke:none;stroke-width:0.842002;stroke-miterlimit:4;stroke-dasharray:none;stroke-dashoffset:11.1798"
         id="rect10324-7"
         width="47.998352"
         height="10.435647"
         x="199.43929"
         y="-194.71625"
         ry="0"
         transform="matrix(0.70616333,0.70804897,-0.70616333,0.70804897,0,0)" />
      <rect
         style="fill:#dc143c;fill-opacity:1;stroke:none;stroke-width:0.842;stroke-miterlimit:4;stroke-dasharray:none;stroke-dashoffset:11.1798"
         id="rect10324-5"
         width="48.062309"
         height="10.421723"
         x="4.6931553e-05"
         y="-296.81174"
         ry="0"
         transform="rotate(90)" />
    </g>
  </g>
</svg>
